<svg width="51" height="51" viewBox="0 0 51 51" fill="none" xmlns="http://www.w3.org/2000/svg">
<path d="M29.0972 28.3694L29.1487 28.2898L35.4951 18.7749L37.2856 16.0945L39.8494 12.2492H16.1467V18.7749H27.6582L21.2135 28.3694L16.8638 34.881H47.7353C48.4408 34.881 48.9227 35.5917 48.6263 36.2318C46.1072 41.6734 41.7341 46.0685 36.2625 48.6156C30.3449 51.3703 23.5938 51.7533 17.4016 49.6856C11.2094 47.618 6.04839 43.2574 2.98313 37.5033C-0.0821288 31.7492 -0.817858 25.0405 0.927695 18.7609C1.17509 17.8518 1.47239 16.957 1.81824 16.0804C4.09219 10.3417 8.37914 5.6239 13.8802 2.80613C19.3813 -0.0116377 25.7212 -0.737132 31.7186 0.764849C37.7159 2.26683 42.9615 5.89382 46.4779 10.9699C47.9415 13.0828 49.064 15.3867 49.8245 17.7986C51.656 23.6069 46.2384 28.3583 40.1482 28.3622L29.0972 28.3694Z" fill="#B85CBA"/>
</svg>
